<?xml version="1.0" standalone="no"?>
<!DOCTYPE svg PUBLIC "-//W3C//DTD SVG 20010904//EN"
 "http://www.w3.org/TR/2001/REC-SVG-20010904/DTD/svg10.dtd">
<svg version="1.0" xmlns="http://www.w3.org/2000/svg"
 width="270.000000pt" height="270.000000pt" viewBox="0 0 270.000000 270.000000"
 preserveAspectRatio="xMidYMid meet">
<metadata>
Created by potrace 1.11, written by Peter Selinger 2001-2013
</metadata>
<g transform="translate(0.000000,270.000000) scale(0.100000,-0.100000)"
fill="#000000" stroke="none">
<path d="M456 2545 c-37 -13 -87 -36 -109 -51 -97 -64 -178 -180 -207 -294 -7
-32 -10 -291 -8 -875 l3 -830 27 -64 c53 -123 146 -216 269 -269 l64 -27 855
0 855 0 70 29 c100 42 219 161 261 261 l29 70 0 855 0 855 -28 65 c-50 119
-148 216 -268 268 l-64 27 -840 2 -840 3 -69 -25z m1403 -809 l104 -105 -384
-389 c-211 -215 -388 -387 -394 -384 -5 4 -109 107 -229 229 l-220 223 105
107 c57 60 107 109 110 111 4 2 59 -50 122 -115 l116 -118 273 273 c150 149
278 272 283 272 6 0 57 -47 114 -104z"/>
</g>
</svg>
